<?xml version="1.0" encoding="utf-8"?>
<!-- Generator: Adobe Illustrator 22.0.1, SVG Export Plug-In . SVG Version: 6.00 Build 0)  -->
<svg version="1.1" id="Layer_1" xmlns="http://www.w3.org/2000/svg" xmlns:xlink="http://www.w3.org/1999/xlink" x="0px" y="0px"
	 viewBox="0 0 1920 1280" style="enable-background:new 0 0 1920 1280;" xml:space="preserve">
<style type="text/css">
	.st0{fill:#92ACFF;}
	.st1{fill:#7FDBFF;}
	.st2{fill:#BBEF9D;}
	.st3{fill:#FFD07B;}
	.st4{fill:#FFB075;}
	.st5{fill:#FF7657;}
	.st6{fill:#FFFFFF;}
	.st7{fill:#BCBCBC;}
	.st8{enable-background:new    ;}
</style>
<g>
	<g>
		<g>
			<g class="st8">
				<g>
					<polygon class="st5" points="786.4,645.8 715.9,604.9 840.3,533.1 910.8,574 					"/>
				</g>
				<g>
					<polygon class="st5" points="786.5,676.8 716,635.8 715.9,604.9 786.4,645.8 					"/>
				</g>
				<g>
					<polygon class="st5" points="910.8,574 910.8,605 786.5,676.8 786.4,645.8 					"/>
				</g>
				<g>
					<polygon class="st4" points="786.4,645.8 715.9,604.9 715.6,494.8 786.1,535.8 					"/>
				</g>
				<g>
					<polygon class="st4" points="910.4,464 910.8,574 786.4,645.8 786.1,535.8 					"/>
				</g>
				<g>
					<polygon class="st4" points="786.1,535.8 715.6,494.8 840,423 910.4,464 					"/>
				</g>
				<g>
					<polygon class="st3" points="785.8,425.7 715.3,384.8 839.7,312.9 910.1,353.9 					"/>
				</g>
				<g>
					<polygon class="st3" points="786.1,535.8 715.6,494.8 715.3,384.8 785.8,425.7 					"/>
				</g>
				<g>
					<polygon class="st3" points="910.1,353.9 910.4,464 786.1,535.8 785.8,425.7 					"/>
				</g>
				<g>
					<polygon class="st2" points="785.8,425.7 715.3,384.8 715.3,378.6 785.7,419.5 					"/>
				</g>
				<g>
					<path class="st2" d="M690.8,304.7l70.5,41c16.3,9.5,24.4,34.3,24.5,73.9l-70.5-41C715.2,338.9,707.1,314.1,690.8,304.7z"/>
				</g>
				<g>
					<path class="st2" d="M899.4,249.9c6.8,24.7,10.6,56.6,10.7,96.9l0,7.2l-124.4,71.8l0-6.2c-0.2-53.5-14.8-79.9-44.7-78.3
						L899.4,249.9z"/>
				</g>
				<g>
					<polygon class="st2" points="741,341.3 670.6,300.3 828.9,208.9 899.4,249.9 					"/>
				</g>
			</g>
			<g class="st8">
				<g>
					<polygon class="st5" points="481.1,853.1 410.6,812.1 410.5,781.2 481,822.1 					"/>
				</g>
				<g>
					<polygon class="st5" points="481,822.1 410.5,781.2 532.3,710.9 602.8,751.8 					"/>
				</g>
				<g>
					<polygon class="st5" points="602.8,751.8 602.9,782.8 481.1,853.1 481,822.1 					"/>
				</g>
			</g>
			<g class="st8">
				<g>
					<polygon class="st4" points="481,822.1 410.5,781.2 410.2,671.1 480.7,712.1 					"/>
				</g>
				<g>
					<polygon class="st4" points="480.7,712.1 410.2,671.1 532,600.8 602.5,641.8 					"/>
				</g>
				<g>
					<polygon class="st4" points="602.5,641.8 602.8,751.8 481,822.1 480.7,712.1 					"/>
				</g>
			</g>
			<g class="st8">
				<g>
					<polygon class="st3" points="480.7,712.1 410.2,671.1 409.9,561.1 480.4,602 					"/>
				</g>
				<g>
					<polygon class="st3" points="480.4,602 409.9,561.1 531.7,490.7 602.2,531.7 					"/>
				</g>
				<g>
					<polygon class="st3" points="602.2,531.7 602.5,641.8 480.7,712.1 480.4,602 					"/>
				</g>
			</g>
			<g class="st8">
				<g>
					<polygon class="st2" points="480.4,602 409.9,561.1 409.6,451 480.1,491.9 					"/>
				</g>
				<g>
					<polygon class="st2" points="480.1,491.9 409.6,451 588,348 658.5,388.9 					"/>
				</g>
				<g>
					<path class="st2" d="M658.5,388.9c-34.9,38.9-56.5,95.3-56.3,142.5L480.4,602l-0.3-110.1L658.5,388.9z"/>
				</g>
			</g>
			<g class="st8">
				<g>
					<path class="st1" d="M787.7,145.7l70.5,41c-7.9-4.6-16.5-7.3-25.8-8.4l-70.5-41C771.2,138.4,779.8,141.2,787.7,145.7z"/>
				</g>
				<g>
					<polygon class="st1" points="639.4,289.7 568.9,248.8 761.9,137.3 832.4,178.3 					"/>
				</g>
				<g>
					<path class="st0" d="M728.9,210.4l-70.5-41c1.3-0.7,2.5-1.4,3.8-2.2c36.5-21.1,71-33.4,99.7-30l70.5,41
						c-28.7-3.4-63.2,8.9-99.7,30C731.5,209,730.2,209.7,728.9,210.4z"/>
				</g>
				<g>
					<path class="st0" d="M728.9,210.4c1.3-0.7,2.5-1.4,3.8-2.2c36.5-21.1,71-33.4,99.7-30l-193,111.4
						C666.7,254.2,697.1,228.8,728.9,210.4z"/>
				</g>
				<g>
					<path class="st0" d="M639.4,289.7l-70.5-41c27.4-35.6,57.7-60.9,89.6-79.3l70.5,41C697.1,228.8,666.7,254.2,639.4,289.7z"/>
				</g>
				<g>
					<path class="st1" d="M595.7,361.4l-70.5-41c13.3-27.7,28-51.3,43.7-71.7l70.5,41C623.7,310.1,609,333.7,595.7,361.4z"/>
				</g>
				<g>
					<polygon class="st1" points="480.1,491.9 409.6,451 409.3,340.9 479.8,381.9 					"/>
				</g>
				<g>
					<path class="st1" d="M832.4,178.3c30.2,3.6,54,24.7,67,71.6L741,341.3c-11.9,0.7-26.2,5.7-43.1,15.4c-0.5,0.3-1,0.6-1.5,0.8
						c-13.9,8-26.6,18.8-37.9,31.4l-178.4,103l-0.3-110.1l112.6-65l3.3,44.6c13.3-27.7,28-51.3,43.7-71.7L832.4,178.3z"/>
				</g>
				<g>
					<polygon class="st1" points="479.8,381.9 409.3,340.9 521.9,275.9 592.4,316.9 					"/>
				</g>
			</g>
			<g class="st8">
				<g>
					<polygon class="st0" points="479.8,381.9 409.3,340.9 409.2,325.2 479.7,366.2 					"/>
				</g>
				<g>
					<polygon class="st0" points="479.7,366.2 409.2,325.2 520.8,260.9 591.2,301.8 					"/>
				</g>
				<g>
					<polygon class="st0" points="591.2,301.8 592.4,316.9 479.8,381.9 479.7,366.2 					"/>
				</g>
			</g>
		</g>
	</g>
	<g>
		<g>
			<g class="st8">
				<g>
					<polygon class="st5" points="1098.2,644.4 1168.7,603.4 1168.6,634.4 1098.1,675.3 					"/>
				</g>
				<g>
					<polygon class="st5" points="976.4,574 1046.9,533.1 1168.7,603.4 1098.2,644.4 					"/>
				</g>
				<g>
					<polygon class="st5" points="1098.2,644.4 1098.1,675.3 976.3,605 976.4,574 					"/>
				</g>
			</g>
			<g class="st8">
				<g>
					<polygon class="st4" points="1098.5,534.3 1169,493.3 1168.7,603.4 1098.2,644.4 					"/>
				</g>
				<g>
					<polygon class="st4" points="976.7,464 1047.2,423 1169,493.3 1098.5,534.3 					"/>
				</g>
				<g>
					<polygon class="st4" points="1098.5,534.3 1098.2,644.4 976.4,574 976.7,464 					"/>
				</g>
			</g>
			<g class="st8">
				<g>
					<polygon class="st3" points="1098.8,424.2 1169.3,383.3 1169,493.3 1098.5,534.3 					"/>
				</g>
				<g>
					<polygon class="st3" points="977,353.9 1047.5,312.9 1169.3,383.3 1098.8,424.2 					"/>
				</g>
				<g>
					<polygon class="st3" points="1098.8,424.2 1098.5,534.3 976.7,464 977,353.9 					"/>
				</g>
			</g>
			<g class="st8">
				<g>
					<path class="st2" d="M1129.5,353l70.5-41c-19.4,11.2-30.6,37-30.7,71l-70.5,41C1098.9,390,1110.2,364.2,1129.5,353z"/>
				</g>
				<g>
					<polygon class="st2" points="977.3,243.8 1047.8,202.9 1226.2,305.9 1155.8,346.9 					"/>
				</g>
				<g>
					<path class="st2" d="M1155.8,346.9c-35-1.5-56.8,29.9-56.9,77.1L977,353.9l0.3-110.1L1155.8,346.9z"/>
				</g>
			</g>
			<g class="st8">
				<g>
					<polygon class="st5" points="1406.1,822.1 1476.6,781.2 1476.5,812.1 1406,853.1 					"/>
				</g>
				<g>
					<polygon class="st5" points="1281.8,750.3 1352.2,709.4 1476.6,781.2 1406.1,822.1 					"/>
				</g>
				<g>
					<polygon class="st5" points="1406.1,822.1 1406,853.1 1281.7,781.3 1281.8,750.3 					"/>
				</g>
			</g>
			<g class="st8">
				<g>
					<polygon class="st4" points="1406.4,712.1 1476.9,671.1 1476.6,781.2 1406.1,822.1 					"/>
				</g>
				<g>
					<polygon class="st4" points="1282.1,640.3 1352.5,599.3 1476.9,671.1 1406.4,712.1 					"/>
				</g>
				<g>
					<polygon class="st4" points="1406.4,712.1 1406.1,822.1 1281.8,750.3 1282.1,640.3 					"/>
				</g>
			</g>
			<g class="st8">
				<g>
					<polygon class="st3" points="1406.7,602 1477.2,561.1 1476.9,671.1 1406.4,712.1 					"/>
				</g>
				<g>
					<polygon class="st3" points="1282.4,530.2 1352.9,489.2 1477.2,561.1 1406.7,602 					"/>
				</g>
				<g>
					<polygon class="st3" points="1406.7,602 1406.4,712.1 1282.1,640.3 1282.4,530.2 					"/>
				</g>
			</g>
			<g class="st8">
				<g>
					<polygon class="st1" points="1090.2,198.8 1160.7,157.8 1163.8,206.1 1093.3,247 					"/>
				</g>
				<g>
					<polygon class="st1" points="977.6,133.8 1048.1,92.8 1160.7,157.8 1090.2,198.8 					"/>
				</g>
				<g>
					<path class="st1" d="M1108.4,235.9l70.5-41c9.2-5.3,18.8-8.6,28.9-10l-70.5,41C1127.2,227.4,1117.6,230.6,1108.4,235.9z"/>
				</g>
				<g>
					<polygon class="st2" points="1406.8,594.9 1477.2,553.9 1477.2,561.1 1406.7,602 					"/>
				</g>
				<g>
					<path class="st2" d="M1396.6,485.9l70.5-41c6.7,32.5,10.3,68.6,10.2,108.9l-70.5,41C1406.9,554.6,1403.3,518.4,1396.6,485.9z"
						/>
				</g>
				<g>
					<path class="st2" d="M1396.6,485.9c6.7,32.5,10.3,68.6,10.2,108.9l0,7.2l-124.4-71.8l0-6.2c0.2-53.5-14.3-96.7-44.1-129.5
						L1396.6,485.9z"/>
				</g>
				<g>
					<polygon class="st2" points="1238.3,394.5 1308.8,353.5 1467.1,444.9 1396.6,485.9 					"/>
				</g>
				<g>
					<polygon class="st1" points="1137.3,225.9 1207.7,185 1400.7,296.4 1330.3,337.4 					"/>
				</g>
				<g>
					<path class="st1" d="M1330.3,337.4c30.1,38.4,53.7,86.9,66.3,148.5l-158.3-91.4c-11.9-13.1-26.2-24.6-43.1-34.3
						c-0.5-0.3-1-0.6-1.5-0.9c-13.9-8-26.6-12-38-12.5l-178.4-103l0.3-110.1l112.6,65l3.1,48.3c13.5-12.2,28.2-18.9,44-21.1
						L1330.3,337.4z"/>
				</g>
				<g>
					<path class="st1" d="M1330.3,337.4l70.5-41c30.1,38.4,53.7,86.9,66.3,148.5l-70.5,41C1384,424.3,1360.4,375.8,1330.3,337.4z"/>
				</g>
			</g>
			<g class="st8">
				<g>
					<polygon class="st0" points="1089.2,182.5 1159.7,141.5 1160.7,157.8 1090.2,198.8 					"/>
				</g>
				<g>
					<polygon class="st0" points="977.7,118.1 1048.2,77.1 1159.7,141.5 1089.2,182.5 					"/>
				</g>
				<g>
					<polygon class="st0" points="1089.2,182.5 1090.2,198.8 977.6,133.8 977.7,118.1 					"/>
				</g>
			</g>
			<g class="st8">
				<g>
					<path class="st0" d="M1137.3,225.9l70.5-41c27.5-3.9,57.9,5.8,89.7,24.2l-70.5,41C1195.1,231.8,1164.7,222,1137.3,225.9z"/>
				</g>
				<g>
					<path class="st0" d="M1227,250.1l70.5-41c1.3,0.7,2.5,1.5,3.8,2.2c36.5,21.1,70.9,48.5,99.5,85l-70.5,41
						c-28.6-36.5-63-63.9-99.5-85C1229.5,251.6,1228.2,250.8,1227,250.1z"/>
				</g>
				<g>
					<path class="st0" d="M1227,250.1c1.3,0.7,2.5,1.5,3.8,2.2c36.5,21.1,70.9,48.5,99.5,85l-193-111.4
						C1164.7,222,1195.1,231.8,1227,250.1z"/>
				</g>
			</g>
		</g>
	</g>
	<g>
		<g>
			<g class="st8">
				<g>
					<polygon class="st0" points="1272.6,785 1272.4,866.5 1055.9,741.5 1056.2,660 					"/>
				</g>
				<g>
					<path class="st0" d="M1187.9,709.5c40.9,23.6,70.1,47.5,84.8,75.5l-216.5-125C1104.1,670.2,1149.1,687.1,1187.9,709.5z"/>
				</g>
			</g>
			<g class="st8">
				<g>
					<polygon class="st1" points="1031.5,756 1031.3,837.5 861.5,739.5 861.7,658 					"/>
				</g>
				<g>
					<path class="st1" d="M1122.1,808.4l-0.2,81.5c-10.4-12.4-24.7-22.8-39.9-31.5c-15.4-8.9-32.6-15.9-50.7-20.8l0.2-81.5
						c18.2,4.9,35.3,11.9,50.7,20.8C1097.4,785.6,1111.7,796,1122.1,808.4z"/>
				</g>
				<g>
					<path class="st1" d="M1283.5,829.2l-0.2,81.5c0,0.9,0,1.7,0,2.6l0.2-81.5C1283.5,830.9,1283.5,830.1,1283.5,829.2z"/>
				</g>
				<g>
					<polygon class="st1" points="1170.1,836 1169.8,917.5 1121.9,889.9 1122.1,808.4 					"/>
				</g>
				<g>
					<polygon class="st1" points="1283.5,831.8 1283.2,913.3 1169.8,917.5 1170.1,836 					"/>
				</g>
				<g>
					<path class="st1" d="M1272.6,785c7.5,14.3,11.3,29.7,10.8,46.8l-113.4,4.2l-47.9-27.7c-10.4-12.4-24.7-22.8-39.9-31.5
						c-15.4-8.9-32.6-15.9-50.7-20.8L861.7,658c64.8-12.8,132.1-11.2,194.5,2L1272.6,785z"/>
				</g>
			</g>
			<g class="st8">
				<g>
					<polygon class="st2" points="1170.1,836 1169.8,917.5 1137.1,918.8 1137.3,837.2 					"/>
				</g>
				<g>
					<path class="st2" d="M1137.3,837.2l-0.2,81.5c-2.5-10.7-7.9-20.3-15.1-28.9l0.2-81.5C1129.4,816.9,1134.8,826.5,1137.3,837.2z"
						/>
				</g>
				<g>
					<path class="st2" d="M1170.1,836l-32.8,1.2c-2.5-10.7-7.9-20.3-15.1-28.9L1170.1,836z"/>
				</g>
			</g>
			<g class="st8">
				<g>
					<path class="st2" d="M1031.5,756l-0.2,81.5c-52-14-112.2-10.6-163.1,16.1l0.2-81.5C919.3,745.5,979.5,742,1031.5,756z"/>
				</g>
				<g>
					<polygon class="st2" points="868.4,772.1 868.2,853.6 743.8,781.8 744,700.3 					"/>
				</g>
				<g>
					<path class="st2" d="M1031.5,756c-52-14-112.2-10.6-163.1,16.1L744,700.3c37-20.3,76.8-34.2,117.6-42.3L1031.5,756z"/>
				</g>
			</g>
			<g class="st8">
				<g>
					<polygon class="st3" points="981.4,931.8 981.1,1013.3 980.8,1028.9 981,947.4 					"/>
				</g>
				<g>
					<polygon class="st3" points="981,947.4 980.8,1028.9 949.3,1010.7 949.5,929.2 					"/>
				</g>
				<g>
					<path class="st3" d="M981.4,931.8l-0.3,15.5l-31.5-18.2C960.3,930.9,971.1,931.8,981.4,931.8z"/>
				</g>
			</g>
			<g class="st8">
				<g>
					<path class="st3" d="M815.2,917.8l0.2-81.5c0.1-20.6,13.9-41.7,45.3-59.9c2.5-1.5,5.1-2.9,7.7-4.2l-0.2,81.5
						c-2.6,1.3-5.1,2.7-7.7,4.2C829.2,876.1,815.3,897.1,815.2,917.8z"/>
				</g>
				<g>
					<path class="st3" d="M868.4,772.1c-2.6,1.3-5.1,2.7-7.7,4.2c-40.3,23.4-51.7,51.4-42.2,77.3l-155.3-89.7
						c15.9-20.1,39.9-40.1,73.1-59.4c2.5-1.5,5.1-2.8,7.6-4.2L868.4,772.1z"/>
				</g>
				<g>
					<polygon class="st3" points="818.6,853.6 818.4,935.1 663,845.4 663.3,763.9 					"/>
				</g>
				<g>
					<path class="st4" d="M638.4,909.5l0.2-81.5c0,12.2,2.5,24.2,7.2,36.1l-0.2,81.5C640.8,933.8,638.3,921.7,638.4,909.5z"/>
				</g>
				<g>
					<polygon class="st4" points="914.7,1019.3 914.4,1100.8 645.6,945.6 645.8,864.1 					"/>
				</g>
				<g>
					<path class="st4" d="M979.3,1023.4l-0.2,81.5c-22.8-0.1-44.3-1.6-64.7-4.2l0.2-81.5C935,1021.8,956.5,1023.3,979.3,1023.4z"/>
				</g>
				<g>
					<polygon class="st4" points="981,947.4 980.8,1028.9 979.1,1105 979.3,1023.4 					"/>
				</g>
				<g>
					<path class="st4" d="M981,947.4l-1.7,76.1c-22.8-0.1-44.3-1.6-64.7-4.2L645.8,864.1c-13.1-32.5-9.1-66.6,17.4-100.2l155.3,89.7
						c6.4,17.3,22.3,33.7,45.4,47c20.6,11.9,53.2,23.5,85.5,28.5L981,947.4z"/>
				</g>
			</g>
			<g class="st8">
				<g>
					<path class="st5" d="M914.7,1019.3l-0.2,81.5c-68.9-8.6-123.9-29.7-165.7-53.8c-51.3-29.6-88.3-64.5-103.2-101.4l0.2-81.5
						c14.9,36.9,51.8,71.8,103.2,101.4C790.7,989.6,845.7,1010.7,914.7,1019.3z"/>
				</g>
				<g>
					<path class="st5" d="M914.7,1019.3c-68.9-8.6-123.9-29.7-165.7-53.8c-51.3-29.6-88.3-64.5-103.2-101.4L914.7,1019.3z"/>
				</g>
			</g>
		</g>
	</g>
</g>
</svg>
